<svg xmlns="http://www.w3.org/2000/svg" xmlns:xlink="http://www.w3.org/1999/xlink" viewBox="0 0 500 500"><defs><style>.cls-1{fill:none;}.cls-2{isolation:isolate;}.cls-3{fill:url(#linear-gradient);}.cls-4{fill:url(#linear-gradient-2);}.cls-5{fill:url(#linear-gradient-3);}.cls-6{fill:#242424;}.cls-7{fill:#212121;}.cls-8{fill:#202020;}.cls-9{fill:url(#linear-gradient-4);}.cls-10{fill:#232323;}.cls-11{clip-path:url(#clip-path);}.cls-12{fill:url(#linear-gradient-5);}.cls-13{fill:url(#linear-gradient-6);}.cls-14{fill:url(#linear-gradient-7);}.cls-15{fill:url(#linear-gradient-8);}.cls-16{fill:url(#linear-gradient-9);}.cls-17{fill:url(#linear-gradient-10);}.cls-18,.cls-21{mix-blend-mode:overlay;}.cls-18{fill:url(#linear-gradient-11);}.cls-19,.cls-22{opacity:0.42;}.cls-19{fill:url(#linear-gradient-12);}.cls-20{fill:url(#linear-gradient-13);}.cls-21{fill:url(#linear-gradient-14);}.cls-22{fill:url(#linear-gradient-15);}</style><linearGradient id="linear-gradient" x1="-1699.25" y1="-797.53" x2="-1420.43" y2="-630.58" gradientTransform="translate(-1292.94 -434.76) rotate(180)" gradientUnits="userSpaceOnUse"><stop offset="0" stop-color="#003196"/><stop offset="1" stop-color="#0cc4ff"/></linearGradient><linearGradient id="linear-gradient-2" x1="-1713.86" y1="-767.92" x2="-1435.04" y2="-600.97" gradientTransform="translate(-1292.94 -434.76) rotate(180)" gradientUnits="userSpaceOnUse"><stop offset="0" stop-color="#0cc4ff"/><stop offset="1" stop-color="#003196"/></linearGradient><linearGradient id="linear-gradient-3" x1="259.25" y1="148.59" x2="371.78" y2="274.36" gradientUnits="userSpaceOnUse"><stop offset="0" stop-color="#00ebff"/><stop offset="0.32" stop-color="#00ebff"/><stop offset="0.42" stop-color="#00e5ff"/><stop offset="0.54" stop-color="#00d3ff"/><stop offset="0.69" stop-color="#00b6ff"/><stop offset="0.85" stop-color="#008eff"/><stop offset="1" stop-color="#0064ff"/></linearGradient><linearGradient id="linear-gradient-4" x1="315.83" y1="233.98" x2="262.71" y2="367.34" gradientUnits="userSpaceOnUse"><stop offset="0" stop-color="#0064ff"/><stop offset="0.42" stop-color="#0040ce"/><stop offset="0.8" stop-color="#0025aa"/><stop offset="1" stop-color="#001b9c"/></linearGradient><clipPath id="clip-path"><path class="cls-1" d="M307.44,94.73c-14.61-5.76-32.45-6.46-53-2.09L230,119.7c20.57-4.37,38.41-3.67,53,2.09s26.3,16.66,35,32.5l24.4-27.06C333.74,111.39,322,100.46,307.44,94.73Z"/></clipPath><linearGradient id="linear-gradient-5" x1="152.73" y1="172.18" x2="325.15" y2="172.18" xlink:href="#linear-gradient-4"/><linearGradient id="linear-gradient-6" x1="365.52" y1="324" x2="441.76" y2="324" xlink:href="#linear-gradient-4"/><linearGradient id="linear-gradient-7" x1="92.83" y1="247.75" x2="241.28" y2="247.75" xlink:href="#linear-gradient-4"/><linearGradient id="linear-gradient-8" x1="216.88" y1="356.71" x2="282.65" y2="356.71" xlink:href="#linear-gradient-4"/><linearGradient id="linear-gradient-9" x1="139.19" y1="121.62" x2="348.51" y2="273.25" gradientUnits="userSpaceOnUse"><stop offset="0" stop-color="#7520ff"/><stop offset="0.2" stop-color="#535bff"/><stop offset="0.4" stop-color="#368eff"/><stop offset="0.58" stop-color="#1eb6ff"/><stop offset="0.75" stop-color="#0ed3ff"/><stop offset="0.89" stop-color="#04e5ff"/><stop offset="1" stop-color="#00ebff"/></linearGradient><linearGradient id="linear-gradient-10" x1="-1408.06" y1="-460.22" x2="-1408.06" y2="-837.87" gradientTransform="translate(-1292.94 -434.76) rotate(180)" gradientUnits="userSpaceOnUse"><stop offset="0" stop-color="#a553ff" stop-opacity="0"/><stop offset="1" stop-color="#ae38ff"/></linearGradient><linearGradient id="linear-gradient-11" x1="-1402.76" y1="-633.61" x2="-1267.39" y2="-589.78" gradientTransform="translate(-1292.94 -434.76) rotate(180)" gradientUnits="userSpaceOnUse"><stop offset="0" stop-color="#af53ff" stop-opacity="0"/><stop offset="0.16" stop-color="#af4dff" stop-opacity="0.2"/><stop offset="0.39" stop-color="#af46ff" stop-opacity="0.48"/><stop offset="0.6" stop-color="#ae40ff" stop-opacity="0.71"/><stop offset="0.78" stop-color="#ae3cff" stop-opacity="0.87"/><stop offset="0.92" stop-color="#ae39ff" stop-opacity="0.96"/><stop offset="1" stop-color="#ae38ff"/></linearGradient><linearGradient id="linear-gradient-12" x1="-1554.72" y1="-672.46" x2="-1301.25" y2="-547.77" gradientTransform="translate(-1292.94 -434.76) rotate(180)" gradientUnits="userSpaceOnUse"><stop offset="0" stop-color="#8a0bff" stop-opacity="0"/><stop offset="1" stop-color="#2a0056"/></linearGradient><linearGradient id="linear-gradient-13" x1="399.49" y1="444.92" x2="399.49" y2="67.28" gradientTransform="matrix(1, 0, 0, 1, 0, 0)" xlink:href="#linear-gradient-10"/><linearGradient id="linear-gradient-14" x1="404.79" y1="271.54" x2="540.16" y2="315.37" gradientTransform="matrix(1, 0, 0, 1, 0, 0)" xlink:href="#linear-gradient-11"/><linearGradient id="linear-gradient-15" x1="252.83" y1="232.69" x2="506.29" y2="357.38" gradientTransform="matrix(1, 0, 0, 1, 0, 0)" xlink:href="#linear-gradient-12"/></defs><g class="cls-2"><g id="Layer_12" data-name="Layer 12"><path class="cls-3" d="M230.55,55.08H101.34A39,39,0,0,0,66.28,77L6.62,198.81a65,65,0,0,0,.5,58.13L99.66,437.4a68.2,68.2,0,0,0,60.71,37.13H384.06a39,39,0,0,0,35.06-21.87L478.78,330.8a65,65,0,0,0-.51-58.13L385.73,92.21A68.2,68.2,0,0,0,325,55.08H230.55Z"/><path class="cls-4" d="M245.16,25.47H115.94A39,39,0,0,0,80.88,47.34L21.22,169.2a65,65,0,0,0,.51,58.13l92.54,180.46A68.2,68.2,0,0,0,175,444.92H398.66a39,39,0,0,0,35.06-21.87l59.66-121.86a65,65,0,0,0-.5-58.13L400.34,62.6a68.2,68.2,0,0,0-60.71-37.13H245.16Z"/><g class="cls-2"><path class="cls-5" d="M369.38,195c.22-1,.13-2,.25-3a31.67,31.67,0,0,0,.44-5.86c-.08-1.25-.5-2.58-.71-3.86a41,41,0,0,0-1.09-5.58c-.44-1.41-1.22-2.89-1.82-4.33a55.28,55.28,0,0,0-2.19-5.21l-.45-.84-21.4-39.12L318,154.29l21.4,39.11a57.78,57.78,0,0,1,2.66,6.11c.59,1.43,1.36,2.89,1.8,4.28a39.51,39.51,0,0,1,1.11,5.68c.2,1.24.61,2.53.69,3.75a31.88,31.88,0,0,1-.45,6.05c0,.34,0,.7-.09,1A73.67,73.67,0,0,1,331,225.09l-47.85,10.17-24.39,27.06,3.7-.79-1.05,1.16,45.65-9.7c13.9-3,24.3-8.21,31-15.68l24.4-27.06c-1.09,1.21-2.86,2-4.14,3.08l3.39-3.77h0a34.31,34.31,0,0,0,4.47-6.25A30.58,30.58,0,0,0,369.38,195Z"/><polygon class="cls-6" points="439.11 304.59 414.71 331.65 258.75 262.32 283.14 235.26 439.11 304.59"/><polygon class="cls-7" points="254.41 92.64 230.02 119.7 94.05 148.6 118.45 121.54 254.41 92.64"/><path class="cls-8" d="M304.1,199.7,245,212.77q-10.47,2.22-14.68,6.9l-24.4,27.05q4.2-4.66,14.69-6.9l59.14-13.07q12.54-2.66,17.62-8.3l24.4-27.06Q316.64,197,304.1,199.7Z"/><path class="cls-9" d="M242.85,250.22c-5.08-2.19-9.53-6.71-13.22-13.46l-.24-.45q-5.74-10.84.06-17.3l-24.4,27.06q-5.79,6.44-.06,17.3l.24.45c3.69,6.74,8.14,11.27,13.23,13.46L365.52,343,389.91,316Z"/><polygon class="cls-10" points="281.44 338.1 257.04 365.16 151.51 172.29 175.91 145.24 281.44 338.1"/><g class="cls-2"><g class="cls-11"><g class="cls-2"><path class="cls-7" d="M342.41,127.23,318,154.29c-8.67-15.84-20.43-26.77-35-32.5-10.83-4.27-23.43-5.76-37.6-4.47l24.4-27c14.17-1.3,26.77.19,37.6,4.46,14.54,5.73,26.3,16.66,35,32.5"/><path class="cls-8" d="M269.84,90.27l-24.4,27.05A134,134,0,0,0,230,119.7l24.39-27.06a132.26,132.26,0,0,1,15.43-2.37"/></g></g></g><path class="cls-12" d="M324.81,180.08a19.47,19.47,0,0,0-.57-3.31c-.25-.84-.75-1.78-1.11-2.66a31.5,31.5,0,0,0-1.37-3.28l-.28-.53-14.23-26a37.3,37.3,0,0,0-7.4-9.45,33.9,33.9,0,0,0-3-2.14,32.31,32.31,0,0,0-6.67-3.93,35.54,35.54,0,0,0-4.36-1.3,40.28,40.28,0,0,0-7.66-1.35,52.4,52.4,0,0,0-5.35-.1c-1.27,0-2.37-.19-3.7-.07a78.15,78.15,0,0,0-8.9,1.37l-.82.92c-12.12,2.36-30.93,6.81-33.08,7.26l-49.15,10.41L152.73,173l49.14-10.41c3.06-.65,40.35-8.44,43.15-8.7,17.33-1.59,29.78,4.33,37.07,17.65l.47-.52h0l-.47.52,14.23,26,.27.51q6.57,12.39-.08,19.77L300,214c0,.09,0,.2,0,.29a13.25,13.25,0,0,1-2.59,4.2l24.4-27.06a13.21,13.21,0,0,0,2.59-4.2,13.7,13.7,0,0,0,.29-1.6,12.93,12.93,0,0,0,.55-3.27A18.44,18.44,0,0,0,324.81,180.08Z"/><polygon class="cls-13" points="441.76 304.96 417.37 332.02 365.52 343.04 389.92 315.98 441.76 304.96"/><polygon class="cls-14" points="241.28 347.58 216.88 374.63 92.83 147.91 117.23 120.86 241.28 347.58"/><polygon class="cls-15" points="282.65 338.78 258.25 365.84 216.88 374.63 241.28 347.58 282.65 338.78"/><path class="cls-16" d="M303.64,198.86l-59.15,13.07c-16.91,3.59-21.91,11.95-14.86,24.83,3.69,6.75,8.14,11.27,13.22,13.46L389.91,316l51.85-11-156-69.33,45.64-9.7C349,222.2,361,214.79,367,203.9s5.25-23.63-2.46-37.72l-21.4-39.11C325.53,94.83,295.51,83,254,91.79L117.23,120.86,241.28,347.58l41.37-8.8L177.13,145.91l83.5-17.75c22-4.66,37.39.82,45.86,16.29l14.23,26C328.77,185.17,323,194.74,303.64,198.86ZM245,212.77,304.1,199.7c.62-.14,1.23-.27,1.83-.42-.6.15-1.21.28-1.83.42L245,212.77q-13.06,2.78-16.38,9.36Q231.87,215.56,245,212.77Zm64.5-14.45-.89.26ZM439.11,304.59h0l-156-69.33h0Zm-75.3-138.24a61.25,61.25,0,0,1,3.4,7.28,61.25,61.25,0,0,0-3.4-7.28l-21.4-39.12c-.27-.49-.55-1-.82-1.44.27.48.55.95.82,1.44ZM254.41,92.64c20.58-4.37,38.42-3.67,53,2.09,13.55,5.34,24.69,15.21,33.15,29.34-8.46-14.13-19.6-24-33.15-29.34-14.61-5.76-32.45-6.46-53-2.09l-136,28.9h0Zm27,245.46h0L175.91,145.24h0Z"/></g><path class="cls-17" d="M131,198.39,215.63,25.47H115.94A39,39,0,0,0,80.88,47.34L21.22,169.2a65,65,0,0,0,.51,58.13l89.91,175.78S84.49,293.31,131,198.39Z"/><path class="cls-18" d="M131,198.39,215.63,25.47H115.94A39,39,0,0,0,80.88,47.34L21.22,169.2a65,65,0,0,0,.51,58.13l92.35,180.55S84.49,293.31,131,198.39Z"/><path class="cls-19" d="M21.73,227.33,60,302.09c-2.61-42.83,7.74-81.88,30-127.31L163.06,25.47H115.94A39,39,0,0,0,80.88,47.34L21.22,169.2A65,65,0,0,0,21.73,227.33Z"/><path class="cls-20" d="M383.64,272,299,444.92h99.68a39,39,0,0,0,35.06-21.87l59.66-121.86a65,65,0,0,0-.5-58.13L403,67.28S430.11,177.08,383.64,272Z"/><path class="cls-21" d="M383.64,272,299,444.92h99.68a39,39,0,0,0,35.06-21.87l59.66-121.86a65,65,0,0,0-.5-58.13L400.52,62.51S430.11,177.08,383.64,272Z"/><path class="cls-22" d="M492.88,243.06,454.64,168.3c2.61,42.83-7.74,81.88-30,127.31l-73.1,149.31h47.11a39,39,0,0,0,35.06-21.87l59.66-121.86A65,65,0,0,0,492.88,243.06Z"/></g></g></svg>